# xmcd
#
# Track frame offsets: 
#        150
#        15627
#        38022
#        52472
#        72782
#        87475
#        106607
#        125754
#        142597
#        158255
#
# Disc length: 2354 seconds
#
# Revision: 0
# Processed by: cddbd v1.5.1PL2 Copyright (c) Steve Scherf et al.
# Submitted via: ExactAudioCopy v0.95a5
#
DISCID=7809300a
DTITLE=Little Milton - Playing For Keeps
DYEAR=1984
DGENRE=Blues
TTITLE0=You're Gonna Have A Murder On Your Hands
TTITLE1=Nobody's Sleeping In My Bed
TTITLE2=Fishing In The Right Stream
TTITLE3=I'll Catch You On Your Way Down
TTITLE4=Come Back Kind Of Loving
TTITLE5=The Blues Is Alright
TTITLE6=Misty Blue
TTITLE7=The Only Thing That Saved Me
TTITLE8=Don't You Know
TTITLE9=Good Night My Love
EXTD=
EXTT0=
EXTT1=
EXTT2=
EXTT3=
EXTT4=
EXTT5=
EXTT6=
EXTT7=
EXTT8=
EXTT9=
PLAYORDER=
